{
  "accessors": [
    {
      "bufferView": 2,
      "componentType": 5126,
      "count": 65532,
      "max": [
        0.7877443432807922,
        1.2405740022659302,
        0.795303463935852
      ],
      "min": [
        -0.7877443432807922,
        -1.2405740022659302,
        -0.795303463935852
      ],
      "type": "VEC3"
    },
    {
      "bufferView": 2,
      "byteOffset": 786384,
      "componentType": 5126,
      "count": 65532,
      "max": [
        0.9999986290931702,
        0.9999998211860657,
        0.9999980926513672
      ],
      "min": [
        -0.9999868273735046,
        -1.0,
        -0.9999759793281555
      ],
      "type": "VEC3"
    },
    {
      "bufferView": 1,
      "componentType": 5126,
      "count": 65532,
      "max": [
        0.9981945753097534,
        0.9864053726196289
      ],
      "min": [
        0.0004898421466350555,
        0.0009728031000122428
      ],
      "type": "VEC2"
    },
    {
      "bufferView": 0,
      "componentType": 5125,
      "count": 339570,
      "type": "SCALAR"
    },
    {
      "bufferView": 2,
      "byteOffset": 1572768,
      "componentType": 5126,
      "count": 24306,
      "max": [
        0.7438783049583435,
        1.2402541637420654,
        0.7155123949050903
      ],
      "min": [
        -0.6403756737709045,
        -1.2405369281768799,
        -0.795303463935852
      ],
      "type": "VEC3"
    },
    {
      "bufferView": 2,
      "byteOffset": 1864440,
      "componentType": 5126,
      "count": 24306,
      "max": [
        0.9999639987945557,
        0.9999998211860657,
        0.9999412894248962
      ],
      "min": [
        -0.9999868273735046,
        -0.9998880624771118,
        -0.9999678134918213
      ],
      "type": "VEC3"
    },
    {
      "bufferView": 1,
      "byteOffset": 524256,
      "componentType": 5126,
      "count": 24306,
      "max": [
        0.9884260892868042,
        0.9774491786956787
      ],
      "min": [
        0.0005095750093460083,
        0.008167377673089504
      ],
      "type": "VEC2"
    },
    {
      "bufferView": 0,
      "byteOffset": 1358280,
      "componentType": 5125,
      "count": 111930,
      "type": "SCALAR"
    }
  ],
  "asset": {
    "extras": {
      "author": "tomasikpawel2006 (https://sketchfab.com/tomasikpawel2006)",
      "license": "CC-BY-NC-SA-4.0 (http://creativecommons.org/licenses/by-nc-sa/4.0/)",
      "source": "https://sketchfab.com/3d-models/totem-pole-i-84205b8b0f87454d8749a9ffa0143253",
      "title": "Totem Pole i."
    },
    "generator": "Sketchfab-15.30.0",
    "version": "2.0"
  },
  "bufferViews": [
    {
      "buffer": 0,
      "byteLength": 1806000,
      "name": "floatBufferViews",
      "target": 34963
    },
    {
      "buffer": 0,
      "byteLength": 718704,
      "byteOffset": 1806000,
      "byteStride": 8,
      "name": "floatBufferViews",
      "target": 34962
    },
    {
      "buffer": 0,
      "byteLength": 2156112,
      "byteOffset": 2524704,
      "byteStride": 12,
      "name": "floatBufferViews",
      "target": 34962
    }
  ],
  "buffers": [
    {
      "byteLength": 4680816,
      "uri": "scene.bin"
    }
  ],
  "extensionsUsed": [
    "KHR_materials_unlit"
  ],
  "images": [
    {
      "uri": "textures/material_0_baseColor.jpeg"
    }
  ],
  "materials": [
    {
      "extensions": {
        "KHR_materials_unlit": {}
      },
      "name": "material_0",
      "pbrMetallicRoughness": {
        "baseColorTexture": {
          "index": 0
        },
        "metallicFactor": 0.0
      }
    }
  ],
  "meshes": [
    {
      "name": "Object_0",
      "primitives": [
        {
          "attributes": {
            "NORMAL": 1,
            "POSITION": 0,
            "TEXCOORD_0": 2
          },
          "indices": 3,
          "material": 0,
          "mode": 4
        }
      ]
    },
    {
      "name": "Object_1",
      "primitives": [
        {
          "attributes": {
            "NORMAL": 5,
            "POSITION": 4,
            "TEXCOORD_0": 6
          },
          "indices": 7,
          "material": 0,
          "mode": 4
        }
      ]
    }
  ],
  "nodes": [
    {
      "children": [
        1
      ],
      "matrix": [
        1.0,
        0.0,
        0.0,
        0.0,
        0.0,
        2.220446049250313e-16,
        -1.0,
        0.0,
        0.0,
        1.0,
        2.220446049250313e-16,
        0.0,
        0.0,
        0.0,
        0.0,
        1.0
      ],
      "name": "Sketchfab_model"
    },
    {
      "children": [
        2
      ],
      "name": "root"
    },
    {
      "children": [
        3
      ],
      "matrix": [
        1.0,
        0.0,
        0.0,
        0.0,
        0.0,
        2.220446049250313e-16,
        1.0,
        0.0,
        0.0,
        -1.0,
        2.220446049250313e-16,
        0.0,
        0.0,
        0.0,
        0.0,
        1.0
      ],
      "name": "GLTF_SceneRootNode"
    },
    {
      "children": [
        4,
        5
      ],
      "name": "_0"
    },
    {
      "mesh": 0,
      "name": "Object_4"
    },
    {
      "mesh": 1,
      "name": "Object_5"
    }
  ],
  "samplers": [
    {
      "magFilter": 9729,
      "minFilter": 9987,
      "wrapS": 10497,
      "wrapT": 10497
    }
  ],
  "scene": 0,
  "scenes": [
    {
      "name": "Sketchfab_Scene",
      "nodes": [
        0
      ]
    }
  ],
  "textures": [
    {
      "sampler": 0,
      "source": 0
    }
  ]
}
